<svg width="24" height="24" viewBox="0 0 24 24" fill="none" xmlns="http://www.w3.org/2000/svg">
  <path d="M7.65137 5.81768C7.65137 6.06157 7.45366 6.25928 7.20977 6.25928H4.78046C4.53658 6.25928 4.33887 6.45699 4.33887 6.70087V10.8958C4.33887 11.1397 4.14116 11.3374 3.89727 11.3374H3.23554C2.99165 11.3374 2.79395 11.5351 2.79395 11.779V12.221C2.79395 12.4649 2.99165 12.6626 3.23554 12.6626H3.89727C4.14116 12.6626 4.33887 12.8603 4.33887 13.1042V17.2991C4.33887 17.543 4.53658 17.7407 4.78046 17.7407H7.20977C7.45366 17.7407 7.65137 17.9384 7.65137 18.1823V19.0657C7.65137 19.3096 7.45366 19.5073 7.20977 19.5073H4.55976C4.31587 19.5073 4.11816 19.3096 4.11816 19.0657V18.403C4.11816 18.1591 3.92046 17.9614 3.67657 17.9614H3.01484C2.77095 17.9614 2.57324 17.7637 2.57324 17.5198V13.3249C2.57324 13.081 2.37553 12.8833 2.13165 12.8833H1.46894C1.22505 12.8833 1.02734 12.6856 1.02734 12.4417V11.5583C1.02734 11.3144 1.22505 11.1167 1.46894 11.1167H2.13165C2.37553 11.1167 2.57324 10.919 2.57324 10.6751V6.48017C2.57324 6.23628 2.77095 6.03857 3.01484 6.03857H3.67657C3.92046 6.03857 4.11816 5.84087 4.11816 5.59698V4.93427C4.11816 4.69038 4.31587 4.49268 4.55976 4.49268H7.20977C7.45366 4.49268 7.65137 4.69038 7.65137 4.93427V5.81768Z" fill="white"/>
  <path d="M14.4287 9.12921C14.4287 9.37309 14.231 9.5708 13.9871 9.5708H13.3244C13.0805 9.5708 12.8828 9.76851 12.8828 10.0124V14.2083C12.8828 14.4522 12.6851 14.6499 12.4412 14.6499H11.7795C11.5356 14.6499 11.3379 14.8476 11.3379 15.0915V19.2864C11.3379 19.5303 11.1402 19.728 10.8963 19.728H10.0129C9.769 19.728 9.57129 19.5303 9.57129 19.2864V14.8698C9.57129 14.6259 9.769 14.4282 10.0129 14.4282H10.6756C10.9195 14.4282 11.1172 14.2305 11.1172 13.9866V9.79169C11.1172 9.54781 11.3149 9.3501 11.5588 9.3501H12.2205C12.4644 9.3501 12.6621 9.15239 12.6621 8.9085V4.71357C12.6621 4.46968 12.8598 4.27197 13.1037 4.27197H13.9871C14.231 4.27197 14.4287 4.46968 14.4287 4.71357V9.12921Z" fill="#FF3B79"/>
  <path d="M16.3486 5.81768C16.3486 6.06157 16.5463 6.25928 16.7902 6.25928H19.2195C19.4634 6.25928 19.6611 6.45699 19.6611 6.70087V10.8958C19.6611 11.1397 19.8588 11.3374 20.1027 11.3374H20.7645C21.0083 11.3374 21.2061 11.5351 21.2061 11.779V12.221C21.2061 12.4649 21.0083 12.6626 20.7645 12.6626H20.1027C19.8588 12.6626 19.6611 12.8603 19.6611 13.1042V17.2991C19.6611 17.543 19.4634 17.7407 19.2195 17.7407H16.7902C16.5463 17.7407 16.3486 17.9384 16.3486 18.1823V19.0657C16.3486 19.3096 16.5463 19.5073 16.7902 19.5073H19.4402C19.6841 19.5073 19.8818 19.3096 19.8818 19.0657V18.403C19.8818 18.1591 20.0795 17.9614 20.3234 17.9614H20.9852C21.229 17.9614 21.4268 17.7637 21.4268 17.5198V13.3249C21.4268 13.081 21.6245 12.8833 21.8684 12.8833H22.5311C22.7749 12.8833 22.9727 12.6856 22.9727 12.4417V11.5583C22.9727 11.3144 22.7749 11.1167 22.5311 11.1167H21.8684C21.6245 11.1167 21.4268 10.919 21.4268 10.6751V6.48017C21.4268 6.23628 21.229 6.03857 20.9852 6.03857H20.3234C20.0795 6.03857 19.8818 5.84087 19.8818 5.59698V4.93427C19.8818 4.69038 19.6841 4.49268 19.4402 4.49268H16.7902C16.5463 4.49268 16.3486 4.69038 16.3486 4.93427V5.81768Z" fill="white"/>
</svg>
