<svg width="26" height="26" viewBox="0 0 26 26" fill="none" xmlns="http://www.w3.org/2000/svg">
<g clip-path="url(#clip0_601_26)">
<path fill-rule="evenodd" clip-rule="evenodd" d="M12.9702 3C7.45694 3 3 7.58333 3 13.2535C3 17.786 5.85571 21.6227 9.81735 22.9806C10.3127 23.0827 10.4941 22.76 10.4941 22.4885C10.4941 22.2508 10.4778 21.436 10.4778 20.5871C7.70429 21.1983 7.12673 19.3648 7.12673 19.3648C6.68102 18.1765 6.02061 17.871 6.02061 17.871C5.11286 17.2429 6.08673 17.2429 6.08673 17.2429C7.09367 17.3108 7.62204 18.2954 7.62204 18.2954C8.51327 19.8571 9.94939 19.4158 10.5271 19.1442C10.6096 18.4821 10.8739 18.0237 11.1545 17.7692C8.94245 17.5315 6.6151 16.6488 6.6151 12.7102C6.6151 11.5898 7.01102 10.6731 7.63837 9.96021C7.53939 9.70563 7.19265 8.65292 7.73755 7.24396C7.73755 7.24396 8.57939 6.97229 10.4776 8.29646C11.2902 8.07201 12.1283 7.95784 12.9702 7.95687C13.812 7.95687 14.6702 8.07583 15.4627 8.29646C17.361 6.97229 18.2029 7.24396 18.2029 7.24396C18.7478 8.65292 18.4008 9.70563 18.3018 9.96021C18.9457 10.6731 19.3253 11.5898 19.3253 12.7102C19.3253 16.6488 16.998 17.5144 14.7694 17.7692C15.1327 18.0917 15.4461 18.7027 15.4461 19.6704C15.4461 21.0454 15.4298 22.149 15.4298 22.4883C15.4298 22.76 15.6114 23.0827 16.1065 22.9808C20.0682 21.6225 22.9239 17.786 22.9239 13.2535C22.9402 7.58333 18.4669 3 12.9702 3Z" fill="white" fill-opacity="0.4"/>
</g>
<defs>
<clipPath id="clip0_601_26">
<rect width="20" height="20" fill="white" transform="translate(3 3)"/>
</clipPath>
</defs>
</svg>
