<svg width="170" height="46" viewBox="0 0 170 46" fill="none" xmlns="http://www.w3.org/2000/svg">
<path d="M13.9399 10.12C13.9399 10.6281 13.528 11.04 13.02 11.04H7.95954C7.45144 11.04 7.03955 11.4519 7.03955 11.96V20.7001C7.03955 21.2082 6.62766 21.6201 6.11956 21.6201H4.73981C4.23172 21.6201 3.81982 22.032 3.81982 22.5401V23.4599C3.81982 23.968 4.23172 24.3799 4.73981 24.3799H6.11956C6.62766 24.3799 7.03955 24.7918 7.03955 25.2999V34.04C7.03955 34.5481 7.45144 34.96 7.95954 34.96H13.02C13.528 34.96 13.9399 35.3719 13.9399 35.88V37.7197C13.9399 38.2278 13.528 38.6396 13.02 38.6396H7.49958C6.99148 38.6396 6.57959 38.2278 6.57959 37.7197V36.3399C6.57959 35.8318 6.1677 35.4199 5.6596 35.4199H4.27985C3.77176 35.4199 3.35986 35.008 3.35986 34.4999V25.7598C3.35986 25.2517 2.94797 24.8398 2.43987 24.8398H1.06013C0.55203 24.8398 0.140137 24.4279 0.140137 23.9199V22.0801C0.140137 21.5721 0.55203 21.1602 1.06013 21.1602H2.43987C2.94797 21.1602 3.35986 20.7483 3.35986 20.2402V11.5001C3.35986 10.992 3.77176 10.5801 4.27985 10.5801H5.6596C6.1677 10.5801 6.57959 10.1682 6.57959 9.66009V8.28034C6.57959 7.77225 6.99148 7.36035 7.49958 7.36035H13.02C13.528 7.36035 13.9399 7.77225 13.9399 8.28034V10.12Z" fill="white"/>
<path d="M28.0601 17.0204C28.0601 17.5285 27.6482 17.9404 27.1401 17.9404H25.7593C25.2512 17.9404 24.8394 18.3523 24.8394 18.8604V27.6005C24.8394 28.1086 24.4275 28.5205 23.9194 28.5205H22.5396C22.0315 28.5205 21.6196 28.9324 21.6196 29.4405V38.1796C21.6196 38.6877 21.2077 39.0996 20.6996 39.0996H18.8599C18.3518 39.0996 17.9399 38.6877 17.9399 38.1796V28.9805C17.9399 28.4724 18.3518 28.0605 18.8599 28.0605H20.2397C20.7478 28.0605 21.1597 27.6487 21.1597 27.1406V18.4005C21.1597 17.8924 21.5716 17.4805 22.0797 17.4805H23.4594C23.9675 17.4805 24.3794 17.0686 24.3794 16.5605V7.82038C24.3794 7.31228 24.7913 6.90039 25.2994 6.90039H27.1401C27.6482 6.90039 28.0601 7.31228 28.0601 7.82038V17.0204Z" fill="#FF3B79"/>
<path d="M32.0601 10.12C32.0601 10.6281 32.472 11.04 32.98 11.04H38.0405C38.5486 11.04 38.9604 11.4519 38.9604 11.96V20.7001C38.9604 21.2082 39.3723 21.6201 39.8804 21.6201H41.2602C41.7683 21.6201 42.1802 22.032 42.1802 22.5401V23.4599C42.1802 23.968 41.7683 24.3799 41.2602 24.3799H39.8804C39.3723 24.3799 38.9604 24.7918 38.9604 25.2999V34.04C38.9604 34.5481 38.5486 34.96 38.0405 34.96H32.98C32.472 34.96 32.0601 35.3719 32.0601 35.88V37.7197C32.0601 38.2278 32.472 38.6396 32.98 38.6396H38.5004C39.0085 38.6396 39.4204 38.2278 39.4204 37.7197V36.3399C39.4204 35.8318 39.8323 35.4199 40.3404 35.4199H41.7201C42.2282 35.4199 42.6401 35.008 42.6401 34.4999V25.7598C42.6401 25.2517 43.052 24.8398 43.5601 24.8398H44.9399C45.448 24.8398 45.8599 24.4279 45.8599 23.9199V22.0801C45.8599 21.5721 45.448 21.1602 44.9399 21.1602H43.5601C43.052 21.1602 42.6401 20.7483 42.6401 20.2402V11.5001C42.6401 10.992 42.2282 10.5801 41.7201 10.5801H40.3404C39.8323 10.5801 39.4204 10.1682 39.4204 9.66009V8.28034C39.4204 7.77225 39.0085 7.36035 38.5004 7.36035H32.98C32.472 7.36035 32.0601 7.77225 32.0601 8.28034V10.12Z" fill="white"/>
<path d="M54.2852 10.5469H57.9062V22.1133L57.1328 26.9297L57.9062 32.3438V36H54.2852V10.5469ZM58.4688 33.2754H56.2539V20.584H58.4688L56.6758 26.9297C56.6758 24.8789 56.957 23.1387 57.5195 21.709C58.082 20.2793 58.8906 19.2012 59.9453 18.4746C61.0117 17.7363 62.2891 17.3672 63.7773 17.3672C65.4414 17.3672 66.9238 17.7832 68.2246 18.6152C69.5254 19.4473 70.5391 20.5898 71.2656 22.043C72.0039 23.4961 72.373 25.125 72.373 26.9297C72.373 28.7109 72.0039 30.334 71.2656 31.7988C70.5391 33.2637 69.5254 34.4121 68.2246 35.2441C66.9238 36.0762 65.4414 36.4922 63.7773 36.4922C62.2891 36.4922 61.0117 36.1289 59.9453 35.4023C58.8906 34.6641 58.082 33.5801 57.5195 32.1504C56.957 30.7207 56.6758 28.9805 56.6758 26.9297L58.4688 33.2754ZM63.2324 33.0996C64.2871 33.0996 65.2305 32.8359 66.0625 32.3086C66.8945 31.7812 67.5391 31.0488 67.9961 30.1113C68.4531 29.1621 68.6816 28.1016 68.6816 26.9297C68.6816 25.7344 68.4531 24.6738 67.9961 23.748C67.5391 22.8105 66.8945 22.0781 66.0625 21.5508C65.2305 21.0234 64.2871 20.7598 63.2324 20.7598C62.1895 20.7598 61.252 21.0234 60.4199 21.5508C59.5879 22.0781 58.9375 22.8105 58.4688 23.748C58 24.6738 57.7656 25.7344 57.7656 26.9297C57.7656 28.125 58 29.1914 58.4688 30.1289C58.9375 31.0547 59.5879 31.7812 60.4199 32.3086C61.252 32.8359 62.1895 33.0996 63.2324 33.0996ZM75.722 17.8594H79.3431V36H75.722V17.8594ZM77.5326 14.4316C77.099 14.4316 76.7064 14.332 76.3548 14.1328C76.015 13.9336 75.7396 13.6641 75.5287 13.3242C75.3295 12.9727 75.2298 12.5801 75.2298 12.1465C75.2298 11.7129 75.3295 11.3203 75.5287 10.9688C75.7396 10.6172 76.015 10.3477 76.3548 10.1602C76.7064 9.96094 77.099 9.86133 77.5326 9.86133C77.9662 9.86133 78.3587 9.96094 78.7103 10.1602C79.0736 10.3477 79.349 10.6172 79.5365 10.9688C79.7357 11.3203 79.8353 11.7129 79.8353 12.1465C79.8353 12.5801 79.7357 12.9727 79.5365 13.3242C79.349 13.6641 79.0736 13.9336 78.7103 14.1328C78.3587 14.332 77.9662 14.4316 77.5326 14.4316ZM82.4636 17.8594H93.573V20.7949H82.4636V17.8594ZM91.112 36.4922C89.9636 36.4922 88.9675 36.252 88.1238 35.7715C87.28 35.2793 86.6355 34.5762 86.1902 33.6621C85.7448 32.748 85.5222 31.6641 85.5222 30.4102V13.3594H89.1609V30.2344C89.1609 31.1836 89.3659 31.8809 89.7761 32.3262C90.198 32.7715 90.8484 32.9941 91.7273 32.9941C92.3366 32.9941 92.9577 32.9004 93.5905 32.7129V36.0703C92.7351 36.3516 91.9089 36.4922 91.112 36.4922Z" fill="#FF3B79"/>
<path d="M96.9747 17.8594H100.596V36H96.9747V17.8594ZM100.016 23.8887V20.6191H101.158L100.016 23.8887C100.016 22.6816 100.262 21.5801 100.754 20.584C101.246 19.5879 101.902 18.8027 102.723 18.2285C103.555 17.6543 104.475 17.3672 105.482 17.3672C106.115 17.3672 106.731 17.4844 107.328 17.7188V21.252C106.66 21.041 105.986 20.9355 105.307 20.9355C104.311 20.9355 103.461 21.1816 102.758 21.6738C102.066 22.1543 101.533 22.8691 101.158 23.8184C100.783 24.7559 100.596 25.8926 100.596 27.2285L100.016 23.8887ZM118.587 36.4922C116.759 36.4922 115.113 36.082 113.648 35.2617C112.195 34.4297 111.052 33.2812 110.22 31.8164C109.4 30.3516 108.99 28.7227 108.99 26.9297C108.99 25.1133 109.394 23.4785 110.203 22.0254C111.011 20.5723 112.113 19.4355 113.507 18.6152C114.914 17.7832 116.49 17.3672 118.236 17.3672C119.982 17.3672 121.535 17.7832 122.894 18.6152C124.253 19.4355 125.308 20.5723 126.058 22.0254C126.82 23.4785 127.201 25.1133 127.201 26.9297C127.201 27.2461 127.183 27.6504 127.148 28.1426H111.574V24.9609H123.632L123.351 25.4004C123.351 24.498 123.134 23.6836 122.701 22.957C122.267 22.2188 121.664 21.6445 120.89 21.2344C120.117 20.8125 119.232 20.6016 118.236 20.6016C117.169 20.6016 116.208 20.8594 115.353 21.375C114.509 21.8906 113.847 22.6055 113.367 23.5195C112.898 24.4336 112.664 25.4824 112.664 26.666V27.1406C112.664 28.3359 112.921 29.4023 113.437 30.3398C113.953 31.2656 114.662 31.9863 115.564 32.502C116.478 33.0059 117.503 33.2578 118.64 33.2578C119.777 33.2578 120.744 33.0117 121.54 32.5195C122.349 32.0156 122.97 31.3184 123.404 30.4277L126.585 31.7109C125.871 33.1992 124.822 34.3711 123.439 35.2266C122.068 36.0703 120.451 36.4922 118.587 36.4922ZM130.532 17.8594H134.153V36H130.532V17.8594ZM142.485 25.5762C142.485 24.0176 142.157 22.8281 141.501 22.0078C140.856 21.1758 139.93 20.7598 138.723 20.7598C137.903 20.7598 137.147 20.9648 136.456 21.375C135.764 21.7734 135.208 22.3828 134.786 23.2031C134.364 24.0117 134.153 25.0195 134.153 26.2266L133.696 23.2207V20.5137H134.716L133.696 23.2207C133.696 22.0723 133.948 21.0586 134.452 20.1797C134.968 19.2891 135.682 18.5977 136.596 18.1055C137.522 17.6133 138.577 17.3672 139.761 17.3672C141.108 17.3672 142.257 17.6719 143.206 18.2812C144.155 18.8906 144.876 19.7695 145.368 20.918C145.86 22.0547 146.106 23.4199 146.106 25.0137V36H142.485V25.5762ZM167.526 10.5469V36H163.904V32.3438L164.678 26.9297L163.904 22.1133V10.5469H167.526ZM163.342 33.2754L165.135 26.9297C165.135 28.9805 164.854 30.7207 164.291 32.1504C163.729 33.5801 162.914 34.6641 161.848 35.4023C160.793 36.1289 159.522 36.4922 158.033 36.4922C156.369 36.4922 154.887 36.0762 153.586 35.2441C152.285 34.4121 151.266 33.2637 150.527 31.7988C149.801 30.334 149.438 28.7109 149.438 26.9297C149.438 25.125 149.801 23.4961 150.527 22.043C151.266 20.5898 152.285 19.4473 153.586 18.6152C154.887 17.7832 156.369 17.3672 158.033 17.3672C159.522 17.3672 160.793 17.7363 161.848 18.4746C162.914 19.2012 163.729 20.2793 164.291 21.709C164.854 23.1387 165.135 24.8789 165.135 26.9297L163.342 20.584H165.557V33.2754H163.342ZM155.748 32.3086C156.58 32.8359 157.524 33.0996 158.578 33.0996C159.621 33.0996 160.559 32.8359 161.391 32.3086C162.223 31.7812 162.873 31.0547 163.342 30.1289C163.811 29.1914 164.045 28.125 164.045 26.9297C164.045 25.7344 163.811 24.6738 163.342 23.748C162.873 22.8105 162.223 22.0781 161.391 21.5508C160.559 21.0234 159.621 20.7598 158.578 20.7598C157.524 20.7598 156.58 21.0234 155.748 21.5508C154.916 22.0781 154.272 22.8105 153.815 23.748C153.358 24.6738 153.129 25.7344 153.129 26.9297C153.129 28.1016 153.358 29.1621 153.815 30.1113C154.272 31.0488 154.916 31.7812 155.748 32.3086Z" fill="#E2E2E4"/>
</svg>
